<mxfile host="app.diagrams.net" modified="2023-04-26T18:44:03.128Z" agent="Mozilla/5.0 (Macintosh; Intel Mac OS X 10_15_7) AppleWebKit/537.36 (KHTML, like Gecko) Chrome/112.0.0.0 Safari/537.36" etag="6FJpHMrHM1dp4k4xfChC" version="21.2.2" type="github">
  <diagram name="Page-1" id="AS2aPgQp2v2xPbQJ607v">
    <mxGraphModel dx="1004" dy="653" grid="1" gridSize="10" guides="1" tooltips="1" connect="1" arrows="1" fold="1" page="1" pageScale="1" pageWidth="850" pageHeight="1100" math="0" shadow="0">
      <root>
        <mxCell id="0" />
        <mxCell id="1" parent="0" />
        <mxCell id="ST7VQp4ixwRSpzbjSQmF-24" style="edgeStyle=orthogonalEdgeStyle;rounded=0;orthogonalLoop=1;jettySize=auto;html=1;exitX=0.5;exitY=0;exitDx=0;exitDy=0;endArrow=none;endFill=0;startArrow=classic;startFill=1;fontColor=#595959;strokeColor=#4D4D4D;" edge="1" parent="1" source="ST7VQp4ixwRSpzbjSQmF-2">
          <mxGeometry relative="1" as="geometry">
            <mxPoint x="339.8461538461538" y="350.0000000000001" as="targetPoint" />
          </mxGeometry>
        </mxCell>
        <mxCell id="ST7VQp4ixwRSpzbjSQmF-36" style="edgeStyle=orthogonalEdgeStyle;rounded=0;orthogonalLoop=1;jettySize=auto;html=1;exitX=0.5;exitY=1;exitDx=0;exitDy=0;fontColor=#999999;strokeColor=#808080;endArrow=none;endFill=0;" edge="1" parent="1" source="ST7VQp4ixwRSpzbjSQmF-2" target="ST7VQp4ixwRSpzbjSQmF-32">
          <mxGeometry relative="1" as="geometry" />
        </mxCell>
        <mxCell id="ST7VQp4ixwRSpzbjSQmF-2" value="Localized KS&lt;br&gt;Adaptive Capacity" style="rounded=1;whiteSpace=wrap;html=1;fillColor=#b0e3e6;strokeColor=#0e8088;fontColor=#666666;" vertex="1" parent="1">
          <mxGeometry x="280" y="370" width="120" height="40" as="geometry" />
        </mxCell>
        <mxCell id="ST7VQp4ixwRSpzbjSQmF-21" style="edgeStyle=orthogonalEdgeStyle;rounded=0;orthogonalLoop=1;jettySize=auto;html=1;exitX=0.5;exitY=1;exitDx=0;exitDy=0;entryX=0.5;entryY=0;entryDx=0;entryDy=0;endArrow=none;endFill=0;fontColor=#595959;strokeColor=#4D4D4D;" edge="1" parent="1" target="ST7VQp4ixwRSpzbjSQmF-19">
          <mxGeometry relative="1" as="geometry">
            <mxPoint x="450" y="230" as="sourcePoint" />
          </mxGeometry>
        </mxCell>
        <mxCell id="ST7VQp4ixwRSpzbjSQmF-5" value="Qualitative Back-Up" style="rounded=1;whiteSpace=wrap;html=1;fillColor=#e1d5e7;strokeColor=#9673a6;fontColor=#595959;" vertex="1" parent="1">
          <mxGeometry x="370" y="250" width="160" height="20" as="geometry" />
        </mxCell>
        <mxCell id="ST7VQp4ixwRSpzbjSQmF-20" style="edgeStyle=orthogonalEdgeStyle;rounded=0;orthogonalLoop=1;jettySize=auto;html=1;exitX=0.5;exitY=1;exitDx=0;exitDy=0;entryX=0.5;entryY=0;entryDx=0;entryDy=0;endArrow=none;endFill=0;fontColor=#595959;strokeColor=#4D4D4D;" edge="1" parent="1" target="ST7VQp4ixwRSpzbjSQmF-13">
          <mxGeometry relative="1" as="geometry">
            <mxPoint x="230" y="230" as="sourcePoint" />
          </mxGeometry>
        </mxCell>
        <mxCell id="ST7VQp4ixwRSpzbjSQmF-25" style="edgeStyle=orthogonalEdgeStyle;rounded=0;orthogonalLoop=1;jettySize=auto;html=1;exitX=0.5;exitY=0;exitDx=0;exitDy=0;entryX=0.5;entryY=0;entryDx=0;entryDy=0;endArrow=none;endFill=0;fontColor=#595959;strokeColor=#4D4D4D;" edge="1" parent="1" source="ST7VQp4ixwRSpzbjSQmF-8" target="ST7VQp4ixwRSpzbjSQmF-5">
          <mxGeometry relative="1" as="geometry" />
        </mxCell>
        <mxCell id="ST7VQp4ixwRSpzbjSQmF-8" value="Quantitative Exploration" style="rounded=1;whiteSpace=wrap;html=1;fillColor=#fff2cc;strokeColor=#d6b656;fontColor=#595959;" vertex="1" parent="1">
          <mxGeometry x="150" y="250" width="160" height="20" as="geometry" />
        </mxCell>
        <mxCell id="ST7VQp4ixwRSpzbjSQmF-23" style="edgeStyle=orthogonalEdgeStyle;rounded=0;orthogonalLoop=1;jettySize=auto;html=1;exitX=0.5;exitY=1;exitDx=0;exitDy=0;entryX=0.5;entryY=1;entryDx=0;entryDy=0;endArrow=none;endFill=0;fontColor=#595959;strokeColor=#4D4D4D;" edge="1" parent="1" source="ST7VQp4ixwRSpzbjSQmF-13" target="ST7VQp4ixwRSpzbjSQmF-19">
          <mxGeometry relative="1" as="geometry" />
        </mxCell>
        <mxCell id="ST7VQp4ixwRSpzbjSQmF-13" value="Use secondary data to run the framework&amp;nbsp;" style="rounded=1;whiteSpace=wrap;html=1;fillColor=#fff2cc;strokeColor=#d6b656;fontColor=#595959;" vertex="1" parent="1">
          <mxGeometry x="160" y="290" width="140" height="40" as="geometry" />
        </mxCell>
        <mxCell id="ST7VQp4ixwRSpzbjSQmF-19" value="Focus groups &amp;amp; interviews" style="rounded=1;whiteSpace=wrap;html=1;fillColor=#e1d5e7;strokeColor=#9673a6;fontColor=#595959;" vertex="1" parent="1">
          <mxGeometry x="380" y="290" width="140" height="40" as="geometry" />
        </mxCell>
        <mxCell id="ST7VQp4ixwRSpzbjSQmF-27" style="edgeStyle=orthogonalEdgeStyle;rounded=0;orthogonalLoop=1;jettySize=auto;html=1;exitX=0.5;exitY=1;exitDx=0;exitDy=0;endArrow=none;endFill=0;fontColor=#595959;strokeColor=#4D4D4D;" edge="1" parent="1" source="ST7VQp4ixwRSpzbjSQmF-26">
          <mxGeometry relative="1" as="geometry">
            <mxPoint x="339.80952380952374" y="230" as="targetPoint" />
          </mxGeometry>
        </mxCell>
        <mxCell id="ST7VQp4ixwRSpzbjSQmF-28" value="Make framework" style="edgeLabel;html=1;align=center;verticalAlign=middle;resizable=0;points=[];fontColor=#595959;" vertex="1" connectable="0" parent="ST7VQp4ixwRSpzbjSQmF-27">
          <mxGeometry x="0.0327" y="-1" relative="1" as="geometry">
            <mxPoint as="offset" />
          </mxGeometry>
        </mxCell>
        <mxCell id="ST7VQp4ixwRSpzbjSQmF-26" value="&lt;span style=&quot;font-weight: normal;&quot;&gt;Literature Review&lt;/span&gt;" style="rounded=1;whiteSpace=wrap;html=1;fontStyle=1;fillColor=#f5f5f5;strokeColor=#666666;fontColor=#333333;" vertex="1" parent="1">
          <mxGeometry x="280" y="180" width="120" height="20" as="geometry" />
        </mxCell>
        <mxCell id="ST7VQp4ixwRSpzbjSQmF-38" style="edgeStyle=orthogonalEdgeStyle;rounded=0;orthogonalLoop=1;jettySize=auto;html=1;exitX=0;exitY=0.5;exitDx=0;exitDy=0;entryX=0;entryY=0.5;entryDx=0;entryDy=0;startArrow=none;startFill=0;strokeColor=#808080;endArrow=none;endFill=0;fontColor=#808080;" edge="1" parent="1" source="ST7VQp4ixwRSpzbjSQmF-35" target="ST7VQp4ixwRSpzbjSQmF-34">
          <mxGeometry relative="1" as="geometry" />
        </mxCell>
        <mxCell id="ST7VQp4ixwRSpzbjSQmF-39" style="edgeStyle=orthogonalEdgeStyle;rounded=0;orthogonalLoop=1;jettySize=auto;html=1;exitX=1;exitY=0.5;exitDx=0;exitDy=0;endArrow=none;endFill=0;strokeColor=#808080;fontColor=#808080;" edge="1" parent="1" source="ST7VQp4ixwRSpzbjSQmF-32">
          <mxGeometry relative="1" as="geometry">
            <mxPoint x="420" y="441" as="targetPoint" />
          </mxGeometry>
        </mxCell>
        <mxCell id="ST7VQp4ixwRSpzbjSQmF-32" value="Validate Measure" style="rounded=1;whiteSpace=wrap;html=1;fillColor=#bac8d3;strokeColor=#23445d;fontColor=#808080;" vertex="1" parent="1">
          <mxGeometry x="280" y="426" width="120" height="30" as="geometry" />
        </mxCell>
        <mxCell id="ST7VQp4ixwRSpzbjSQmF-34" value="Historic Data" style="rounded=1;whiteSpace=wrap;html=1;fillColor=#bac8d3;strokeColor=#23445d;fontColor=#808080;" vertex="1" parent="1">
          <mxGeometry x="440" y="406" width="120" height="30" as="geometry" />
        </mxCell>
        <mxCell id="ST7VQp4ixwRSpzbjSQmF-35" value="Metaverse modeling" style="rounded=1;whiteSpace=wrap;html=1;fillColor=#bac8d3;strokeColor=#23445d;fontColor=#808080;" vertex="1" parent="1">
          <mxGeometry x="440" y="446" width="120" height="30" as="geometry" />
        </mxCell>
      </root>
    </mxGraphModel>
  </diagram>
</mxfile>
